<?xml version="1.0" encoding="utf-8"?>
<!-- Generator: Adobe Illustrator 27.7.0, SVG Export Plug-In . SVG Version: 6.00 Build 0)  -->
<svg version="1.1" id="outlined_00000017475885855093261190000001506201404218090420_"
	 xmlns="http://www.w3.org/2000/svg" xmlns:xlink="http://www.w3.org/1999/xlink" x="0px" y="0px" viewBox="0 0 338.3 58.6"
	 style="enable-background:new 0 0 338.3 58.6;" xml:space="preserve">
<style type="text/css">
	.st0{display:none;}
	.st1{display:inline;}
	.st2{fill:#0596FF;}
	.st3{fill-rule:evenodd;clip-rule:evenodd;fill:#0596FF;}
	.st4{display:inline;fill:#0596FF;}
	.st5{font-family:'Raleway-Light';}
	.st6{font-size:61.9276px;}
	.st7{display:inline;fill:none;stroke:#0596FF;stroke-width:3;stroke-miterlimit:10;}
	.st8{fill:#FFFFFF;}
	.st9{fill-rule:evenodd;clip-rule:evenodd;fill:#FFFFFF;}
	.st10{enable-background:new    ;}
</style>
<g id="group" class="st0">
	<g id="Layer_00000051347786872184366590000006152872190405591208_" class="st1">
		<path id="Layer" class="st2" d="M136.6,31.6c0,9-8.1,13.5-17.6,13.5c-6.2,0-11.8-1.4-16.4-4c1.2-1.8,3-4.8,3.8-6.7
			c3.2,1.3,8.3,2.9,12.9,2.9c4.5,0,8.1-1.9,8.1-4.4c0-2.2-0.8-3.9-8-6.2c-9.2-2.9-14.5-5.8-14.5-13.6c0-8.2,7.6-12.7,17.1-12.7
			c4.1,0,9.1,0.9,12.3,1.7L133.8,14l-6.8-0.1l0.1-5.9c-1.1-0.3-2.5-0.4-4.5-0.4c-5.2,0-8.7,1.7-8.7,4.8c0,2.1,2,4.1,9.2,6.4
			C132.4,21.8,136.6,24.6,136.6,31.6L136.6,31.6z"/>
		<path id="Layer_00000046324157645968122880000008403170408469175472_" class="st3" d="M42.6,38.9h3.5v5.4H29.5v-5.4h3.4l-2.1-6H14
			l-2.2,6h3.7v5.4H0v-5.4h3.7L15.2,6.2h-4.6V0.7h18.5L42.6,38.9z M28.4,26.1l-6.1-17l-6,17H28.4z"/>
		<path id="Layer_00000112607107294805902200000011125751335499032992_" class="st3" d="M104,25.9c0,10.6-8.7,19.2-19.2,19.2
			c-5.2,0-9.8-2.1-13.3-5.4c-2.3,2.9-6.6,5.3-11.8,5.3C53.5,45,47,42,47,32.8v-18h-6.5V8H47V0.6h8.9V8h9.9v6.8h-9.9v17.1
			c0,3.7,2.3,6.2,5.5,6.2c2.3,0,4.8-1.1,6.6-3c-1.5-2.8-2.4-5.9-2.4-9.2c0-8.5,5.5-15.8,13.3-18.3c-1.6,2.4-2.7,7.8-2.7,10.8
			c-1.5,2.1-2.5,4.6-2.5,7.5c0,6.5,5,11.8,11.1,11.8c2.2,0,4.3-0.7,6-1.9c-6.9-2.9-11.7-9.8-11.7-17.7c0-4.3,1.4-8.2,3.7-11.4
			c0.7-0.1,1.3-0.1,2-0.1c2.7,0,5.2,0.6,7.5,1.5C99.2,11.1,104,17.9,104,25.9z M95.9,25.9c0-5.5-3.5-10.1-8.1-11.4
			c-0.4,1.1-0.6,2.3-0.6,3.6c0,5.4,3.5,10,8.1,11.4C95.7,28.4,95.9,27.2,95.9,25.9z"/>
	</g>
	<text transform="matrix(1 0 0 1 179.3305 44.747)" class="st4 st5 st6">Group</text>
	<line class="st7" x1="166" y1="0.4" x2="166" y2="44.3"/>
</g>
<g id="outlined">
	<g id="Layer_00000048494189347582304870000012041368510930863793_">
		<path id="Layer_00000147916052121132795320000009667142323153396374_" class="st8" d="M136.6,31.6c0,9-8.1,13.5-17.6,13.5
			c-6.2,0-11.8-1.4-16.4-4c1.2-1.8,3-4.8,3.8-6.7c3.2,1.3,8.3,2.9,12.9,2.9c4.5,0,8.1-1.9,8.1-4.4c0-2.2-0.8-3.9-8-6.2
			c-9.2-2.9-14.5-5.8-14.5-13.6c0-8.2,7.6-12.7,17.1-12.7c4.1,0,9.1,0.9,12.3,1.7L133.8,14l-6.8-0.1l0.1-5.9
			c-1.1-0.3-2.5-0.4-4.5-0.4c-5.2,0-8.7,1.7-8.7,4.8c0,2.1,2,4.1,9.2,6.4C132.4,21.8,136.6,24.6,136.6,31.6L136.6,31.6z"/>
		<path id="Layer_00000093145824005167744760000010816939350374164378_" class="st9" d="M42.6,38.9h3.5v5.4H29.5v-5.4h3.4l-2.1-6H14
			l-2.2,6h3.7v5.4H0v-5.4h3.7L15.2,6.2h-4.6V0.7h18.5L42.6,38.9z M28.4,26.1l-6.1-17l-6,17H28.4z"/>
		<path id="Layer_00000098195233175790594230000015297193538448912574_" class="st9" d="M104,25.9c0,10.6-8.7,19.2-19.2,19.2
			c-5.2,0-9.8-2.1-13.3-5.4c-2.3,2.9-6.6,5.3-11.8,5.3C53.5,45,47,42,47,32.8v-18h-6.5V8H47V0.6h8.9V8h9.9v6.8h-9.9v17.1
			c0,3.7,2.3,6.2,5.5,6.2c2.3,0,4.8-1.1,6.6-3c-1.5-2.8-2.4-5.9-2.4-9.2c0-8.5,5.5-15.8,13.3-18.3c-1.6,2.4-2.7,7.8-2.7,10.8
			c-1.5,2.1-2.5,4.6-2.5,7.5c0,6.5,5,11.8,11.1,11.8c2.2,0,4.3-0.7,6-1.9c-6.9-2.9-11.7-9.8-11.7-17.7c0-4.3,1.4-8.2,3.7-11.4
			c0.7-0.1,1.3-0.1,2-0.1c2.7,0,5.2,0.6,7.5,1.5C99.2,11.1,104,17.9,104,25.9z M95.9,25.9c0-5.5-3.5-10.1-8.1-11.4
			c-0.4,1.1-0.6,2.3-0.6,3.6c0,5.4,3.5,10,8.1,11.4C95.7,28.4,95.9,27.2,95.9,25.9z"/>
	</g>
	<g>
		<g class="st10">
			<path class="st8" d="M215.9,38.1c-4.3,4.8-9.2,7.2-14.8,7.2c-3,0-5.7-0.6-8.3-1.9c-2.5-1.3-4.7-3-6.5-5.1
				c-1.8-2.1-3.2-4.5-4.3-7.2c-1-2.7-1.6-5.4-1.6-8.2c0-2.9,0.5-5.7,1.5-8.4c1-2.7,2.4-5.1,4.2-7.1c1.8-2.1,3.9-3.7,6.4-4.9
				c2.5-1.2,5.2-1.8,8.1-1.8c2.2,0,4.2,0.2,5.9,0.7c1.8,0.5,3.3,1.1,4.7,2c1.4,0.8,2.6,1.9,3.6,3c1,1.2,1.9,2.5,2.6,3.9l-2.6,1.6
				c-1.5-2.9-3.5-5-5.9-6.3c-2.5-1.3-5.2-2-8.3-2c-2.6,0-5,0.6-7.1,1.7c-2.1,1.1-3.9,2.6-5.4,4.4c-1.5,1.8-2.6,3.9-3.4,6.2
				c-0.8,2.3-1.2,4.7-1.2,7.1c0,2.6,0.5,5.1,1.4,7.4c0.9,2.3,2.2,4.4,3.8,6.2c1.6,1.8,3.5,3.2,5.6,4.3c2.2,1.1,4.5,1.6,7,1.6
				c2.7,0,5.2-0.6,7.7-1.9c2.4-1.2,4.7-3.2,7-5.9v-8.5h-10v-2.5h12.7V45h-2.7V38.1z"/>
			<path class="st8" d="M239.3,15.5c-2.9,0.1-5.4,0.9-7.6,2.6s-3.7,3.9-4.6,6.7V45h-3.1V12.7h3v7.9c1.1-2.3,2.6-4.1,4.4-5.6
				c1.8-1.4,3.8-2.2,5.9-2.5c0.4,0,0.8-0.1,1.1-0.1c0.3,0,0.6,0,0.8,0V15.5z"/>
			<path class="st8" d="M254.2,45.6c-2.3,0-4.4-0.4-6.3-1.3s-3.6-2.1-5-3.6s-2.5-3.3-3.3-5.3c-0.8-2-1.2-4.2-1.2-6.4
				c0-2.3,0.4-4.4,1.2-6.5c0.8-2,1.9-3.8,3.3-5.3c1.4-1.5,3.1-2.7,5-3.6c1.9-0.9,4-1.3,6.2-1.3c2.2,0,4.3,0.4,6.2,1.3
				c1.9,0.9,3.6,2.1,5,3.6c1.4,1.5,2.5,3.3,3.4,5.3c0.8,2,1.2,4.2,1.2,6.5c0,2.2-0.4,4.4-1.2,6.4c-0.8,2-1.9,3.8-3.3,5.3
				c-1.4,1.5-3.1,2.7-5,3.6C258.5,45.1,256.4,45.6,254.2,45.6z M241.5,29c0,1.9,0.3,3.7,1,5.4c0.7,1.7,1.6,3.1,2.7,4.4
				c1.1,1.2,2.5,2.2,4,2.9c1.5,0.7,3.2,1.1,4.9,1.1s3.4-0.4,4.9-1.1c1.5-0.7,2.9-1.7,4-3c1.2-1.3,2.1-2.8,2.7-4.4
				c0.7-1.7,1-3.5,1-5.4c0-1.9-0.3-3.7-1-5.4c-0.7-1.7-1.6-3.1-2.7-4.4c-1.2-1.3-2.5-2.3-4-3c-1.5-0.7-3.1-1.1-4.9-1.1
				s-3.4,0.4-4.9,1.1c-1.5,0.7-2.9,1.8-4,3c-1.1,1.3-2,2.8-2.7,4.5C241.8,25.3,241.5,27.1,241.5,29z"/>
			<path class="st8" d="M284.4,45.6c-6.9,0-10.3-4.8-10.3-14.3V12.7h3.1v18.2c0,7.9,2.7,11.9,8.1,11.9c1.4,0,2.7-0.2,4-0.7
				c1.3-0.5,2.5-1.1,3.6-2c1.1-0.8,2.1-1.9,2.9-3.1c0.8-1.2,1.5-2.5,2-4V12.7h3.1v27.9c0,1,0.4,1.6,1.3,1.6V45
				c-0.2,0-0.4,0.1-0.6,0.1c-0.2,0-0.3,0-0.4,0c-0.8,0-1.6-0.3-2.2-0.8c-0.6-0.5-1-1.2-1-2.1v-4.8c-1.4,2.6-3.3,4.6-5.8,6.1
				C289.9,44.9,287.3,45.6,284.4,45.6z"/>
			<path class="st8" d="M323.6,45.6c-2.8,0-5.2-0.7-7.4-2.2c-2.2-1.5-3.9-3.3-5.2-5.4v20.2h-3.1V12.7h2.9v6.5
				c1.3-2.1,3.1-3.8,5.2-5.1c2.2-1.3,4.5-2,7-2c2.2,0,4.3,0.5,6.2,1.4c1.9,1,3.5,2.2,4.9,3.8c1.4,1.6,2.4,3.3,3.2,5.4
				c0.8,2,1.1,4.1,1.1,6.2c0,2.2-0.4,4.4-1.1,6.4c-0.7,2-1.7,3.8-3,5.3c-1.3,1.5-2.9,2.7-4.7,3.6C327.8,45.1,325.8,45.6,323.6,45.6z
				 M322.9,42.8c1.9,0,3.6-0.4,5.1-1.2c1.5-0.8,2.8-1.8,3.9-3.1c1.1-1.3,1.9-2.8,2.5-4.5c0.6-1.7,0.9-3.4,0.9-5.1
				c0-1.9-0.3-3.6-1-5.3c-0.7-1.7-1.6-3.2-2.8-4.4c-1.2-1.3-2.6-2.3-4.1-3.1c-1.6-0.8-3.2-1.1-5-1.1c-1.1,0-2.3,0.2-3.6,0.7
				c-1.3,0.5-2.5,1.1-3.6,1.9c-1.1,0.8-2.1,1.7-2.9,2.8c-0.8,1-1.2,2.1-1.4,3.3v10.6c0.5,1.2,1.2,2.3,2,3.4c0.8,1,1.8,1.9,2.8,2.7
				c1,0.8,2.2,1.4,3.4,1.8C320.4,42.6,321.6,42.8,322.9,42.8z"/>
		</g>
	</g>
	<rect x="157.8" y="0.4" class="st8" width="3.1" height="44.7"/>
</g>
</svg>
