<!DOCTYPE svg PUBLIC "-//W3C//DTD SVG 1.1//EN" "http://www.w3.org/Graphics/SVG/1.1/DTD/svg11.dtd">
<!-- Uploaded to: SVG Repo, www.svgrepo.com, Transformed by: SVG Repo Mixer Tools -->
<svg width="800px" height="800px" viewBox="-2.4 -2.4 28.80 28.80" fill="none" xmlns="http://www.w3.org/2000/svg" stroke="#151b23">
<g id="SVGRepo_bgCarrier" stroke-width="0">
<rect x="-2.4" y="-2.4" width="28.80" height="28.80" rx="0" fill="#151b23" strokewidth="0"/>
</g>
<g id="SVGRepo_tracerCarrier" stroke-linecap="round" stroke-linejoin="round" stroke="#CCCCCC" stroke-width="4.8"> <path d="M20.9485 11.0195C21.2909 11.6283 21.2909 12.3717 20.9485 12.9805L17.5735 18.9805C17.2192 19.6103 16.5529 20 15.8303 20H8.16969C7.44715 20 6.78078 19.6103 6.42654 18.9805L3.05154 12.9805C2.70908 12.3717 2.70908 11.6283 3.05154 11.0195L6.42654 5.01948C6.78078 4.38972 7.44715 4 8.16969 4H15.8303C16.5529 4 17.2192 4.38972 17.5735 5.01948L20.9485 11.0195Z" stroke="#151b23" stroke-width="2" stroke-linecap="round" stroke-linejoin="round" data-darkreader-inline-stroke="" style="--darkreader-inline-stroke: var(--darkreader-text-000000, #e8e6e3);"/> </g>
<g id="SVGRepo_iconCarrier"> <path d="M20.9485 11.0195C21.2909 11.6283 21.2909 12.3717 20.9485 12.9805L17.5735 18.9805C17.2192 19.6103 16.5529 20 15.8303 20H8.16969C7.44715 20 6.78078 19.6103 6.42654 18.9805L3.05154 12.9805C2.70908 12.3717 2.70908 11.6283 3.05154 11.0195L6.42654 5.01948C6.78078 4.38972 7.44715 4 8.16969 4H15.8303C16.5529 4 17.2192 4.38972 17.5735 5.01948L20.9485 11.0195Z" stroke="#151b23" stroke-width="2" stroke-linecap="round" stroke-linejoin="round" data-darkreader-inline-stroke="" style="--darkreader-inline-stroke: var(--darkreader-text-000000, #e8e6e3);"/> </g>
</svg>